<?xml version="1.0" encoding="utf-8"?>
<!-- Generator: Adobe Illustrator 23.0.2, SVG Export Plug-In . SVG Version: 6.00 Build 0)  -->
<svg version="1.1" id="Layer_1" xmlns="http://www.w3.org/2000/svg" xmlns:xlink="http://www.w3.org/1999/xlink" x="0px" y="0px"
	 viewBox="0 0 600 274.2" style="enable-background:new 0 0 600 274.2;" xml:space="preserve">
<style type="text/css">
	.st0{fill:#FF7B4A;}
</style>
<path class="st0" d="M396.2,241.3L396.2,241.3L396.2,241.3l173.9-29.7c6.9-1.2,12-7.2,12-14.2v-0.2c0-8-6.6-14.5-14.6-14.4l-6.3,0.1
	c-20,2.2-61.7,3.6-93.4,4.2c-17.8,0.3-35.5-0.5-53.2-2.4c-8.5-2-14.6-10.3-12.9-19.8c1.5-8.2,9.1-13.9,17.5-13.9h148.5
	c7.9,0,14.4-6.4,14.4-14.4V134c0-7.9-6.4-14.4-14.4-14.4H419.5c-8.5,0-16.4-5.7-17.8-14.1c-1.6-9.3,4.4-17.4,12.7-19.5l0.3,0
	c17.5-1.9,35.2-2.7,52.8-2.4c31.2,0.6,72.2,1.9,91.7,4l7.7,0.1c6.8,0.1,13.1-4.2,14.8-10.8c2.1-8.5-3.4-16.4-11.5-17.8L396.2,29.4v0
	c-51.6,0-93,40.5-104.7,80.9c-0.3,1.1-0.7,2.2-1,3.3l-4.9-1.8L135.9,57.7c-21.4-7.8-43.6-6.4-62.7,1.8c-28.4,12.1-49.8,39.1-50.9,73
	C21,169,42.7,198.9,72.4,211.9c18.6,8.1,40.3,9.6,61.5,1.9l151.7-54.9l4.9-1.8c0.3,1.1,0.7,2.3,1,3.4
	C303.2,200.9,344.6,241.3,396.2,241.3z"/>
</svg>
