<?xml version="1.0" encoding="utf-8"?>
<!-- Generator: Adobe Illustrator 23.0.2, SVG Export Plug-In . SVG Version: 6.00 Build 0)  -->
<svg version="1.1" id="Layer_1" xmlns="http://www.w3.org/2000/svg" xmlns:xlink="http://www.w3.org/1999/xlink" x="0px" y="0px"
	 viewBox="0 0 800 600" style="enable-background:new 0 0 800 600;" xml:space="preserve">
<style type="text/css">
	.st0{fill:#3C4D64;}
</style>
<g>
	<path class="st0" d="M669.2,56H131.7c-31.4,0-56.8,25.4-56.8,56.8v365.2c0,31.4,25.4,56.8,56.8,56.8h537.6
		c31.4,0,56.8-25.4,56.8-56.8V112.8C726.1,81.4,700.7,56,669.2,56z M625.5,407.8c10,8.6,11,23.7,2.5,33.6
		c-4.7,5.5-11.4,8.3-18.1,8.3c-5.6,0-11.1-1.9-15.6-5.8L458.8,327l-58.3,50.4L342.2,327L206.7,444c-4.5,3.9-10.1,5.8-15.6,5.8
		c-6.7,0-13.3-2.8-18.1-8.3c-8.6-10-7.5-25.1,2.5-33.6l130.2-112.4L175.5,183c-10-8.6-11.1-23.7-2.5-33.6c8.6-10,23.7-11.1,33.6-2.5
		l193.9,167.3l193.7-167.3c10-8.6,25.1-7.5,33.6,2.5c8.6,10,7.5,25.1-2.5,33.6L495.4,295.5L625.5,407.8z"/>
</g>
</svg>
