<?xml version="1.0" encoding="utf-8"?>
<!-- Generator: Adobe Illustrator 23.0.2, SVG Export Plug-In . SVG Version: 6.00 Build 0)  -->
<svg version="1.1" id="Layer_1" xmlns="http://www.w3.org/2000/svg" xmlns:xlink="http://www.w3.org/1999/xlink" x="0px" y="0px"
	 viewBox="0 0 244.1 250.6" style="enable-background:new 0 0 244.1 250.6;" xml:space="preserve">
<style type="text/css">
	.st0{fill:none;stroke:#231F20;stroke-width:16;stroke-miterlimit:10;}
</style>
<g>
	<path class="st0" d="M63.1,123.9H16c0,21.8,6.6,42,17.8,58.8c8.7-7.3,20.3-13.4,33.8-17.9C64.7,152.2,63.1,138.4,63.1,123.9z"/>
	<path class="st0" d="M67.6,83c-13.5-4.5-25.1-10.6-33.8-17.9C22.6,81.9,16,102.1,16,123.9h47.1C63.1,109.4,64.7,95.6,67.6,83z"/>
	<path class="st0" d="M181,123.9h47.1c0-21.8-6.6-42-17.8-58.8c-8.7,7.3-20.3,13.4-33.8,17.9C179.4,95.6,181,109.4,181,123.9z"/>
	<path class="st0" d="M181,123.9c0,14.5-1.6,28.3-4.6,40.9c13.5,4.5,25.1,10.6,33.8,17.9c11.2-16.8,17.8-37.1,17.8-58.8H181z"/>
	<path class="st0" d="M122,156.4c19.9,0,38.5,3.1,54.4,8.4c2.9-12.6,4.6-26.4,4.6-40.9h-59V156.4z"/>
	<path class="st0" d="M122,91.3c-19.9,0-38.5-3.1-54.4-8.4c-2.9,12.6-4.6,26.4-4.6,40.9h59V91.3z"/>
	<path class="st0" d="M122,123.9h-59c0,14.5,1.6,28.3,4.6,40.9c15.9-5.3,34.5-8.4,54.4-8.4V123.9z"/>
	<path class="st0" d="M122,91.3v32.5h59c0-14.5-1.6-28.3-4.6-40.9C160.6,88.3,142,91.3,122,91.3z"/>
	<path class="st0" d="M122,17.8c-36.8,0-69.2,18.8-88.2,47.2c8.7,7.3,20.3,13.4,33.8,17.9C76.5,44.7,97.5,17.8,122,17.8z"/>
	<path class="st0" d="M122,17.8c24.5,0,45.5,26.9,54.4,65.1c13.5-4.5,25.1-10.6,33.8-17.9C191.3,36.6,158.9,17.8,122,17.8z"/>
	<path class="st0" d="M176.5,83c-8.9-38.3-29.9-65.1-54.4-65.1v73.5C142,91.3,160.6,88.3,176.5,83z"/>
	<path class="st0" d="M122,17.8c-24.5,0-45.5,26.9-54.4,65.1c15.9,5.3,34.5,8.4,54.4,8.4V17.8z"/>
	<path class="st0" d="M122,229.9c-24.5,0-45.5-26.9-54.4-65.1c-13.5,4.5-25.1,10.6-33.8,17.9C52.8,211.2,85.2,229.9,122,229.9z"/>
	<path class="st0" d="M122,229.9c36.8,0,69.2-18.8,88.2-47.2c-8.7-7.3-20.3-13.4-33.8-17.9C167.6,203,146.6,229.9,122,229.9z"/>
	<path class="st0" d="M67.6,164.8c8.9,38.3,29.9,65.1,54.4,65.1v-73.5C102.1,156.4,83.5,159.5,67.6,164.8z"/>
	<path class="st0" d="M122,229.9c24.5,0,45.5-26.9,54.4-65.1c-15.9-5.3-34.5-8.4-54.4-8.4V229.9z"/>
</g>
</svg>
