<?xml version="1.0" encoding="utf-8"?>
<!-- Generator: Adobe Illustrator 23.0.2, SVG Export Plug-In . SVG Version: 6.00 Build 0)  -->
<svg version="1.1" id="Layer_1" xmlns="http://www.w3.org/2000/svg" xmlns:xlink="http://www.w3.org/1999/xlink" x="0px" y="0px"
	 viewBox="0 0 800 600" style="enable-background:new 0 0 800 600;" xml:space="preserve">
<style type="text/css">
	.st0{fill:#3C4D64;}
</style>
<g>
	<polygon class="st0" points="691.7,4.3 172.3,4.3 172.3,50.3 647.4,50.3 647.4,554.9 691.7,554.9 	"/>
	<path class="st0" d="M154.2,68.9H110v526.2h519.3v-21.6V68.9H154.2z M384.7,177.4c0-10.9,9.9-19.5,21.2-17.2
		c8.2,1.7,13.9,9.3,13.9,17.7v87.5c0,3.3,2.1,6.3,5.2,7.4l1.1,0.4c5.1,1.8,10.5-2,10.5-7.4v-88.3c0-10.9,9.9-19.5,21.2-17.2
		c8.2,1.7,13.9,9.3,13.9,17.7v87.7c0,5.5,5.5,9.3,10.6,7.4c3.1-1.1,5.2-4.1,5.2-7.4v-88.2c0-10.9,9.9-19.5,21.2-17.2
		c8.2,1.7,13.9,9.3,13.9,17.7v87.8c0,0.1,0,0.2,0,0.3c0.3,1.2,0.4,2.5,0.4,3.8c0,31.9-21.8,58.8-51.3,66.6v151.3
		c0,10.9-9.9,19.5-21.2,17.2c-8.2-1.7-13.9-9.3-13.9-17.7V336.5c-29.6-7.8-51.5-34.7-51.5-66.6c0-0.4,0.1-0.8,0.1-1.3
		c-0.4-1.5-0.7-3-0.7-4.5v-86.7H384.7z M279.3,158.7c32.6,0,63.3,61.9,63.3,109.9c0,37-19.5,68.2-46,77.8v141.7
		c0,9.5-7.7,17.3-17.3,17.3c-9.5,0-17.3-7.7-17.3-17.3V346.4c-26.5-9.6-46-40.9-46-77.8C216,220.6,246.7,158.7,279.3,158.7z"/>
</g>
</svg>
