<?xml version="1.0" encoding="utf-8"?>
<!-- Generator: Adobe Illustrator 23.0.2, SVG Export Plug-In . SVG Version: 6.00 Build 0)  -->
<svg version="1.1" id="Layer_1" xmlns="http://www.w3.org/2000/svg" xmlns:xlink="http://www.w3.org/1999/xlink" x="0px" y="0px"
	 viewBox="0 0 286.8 192" style="enable-background:new 0 0 286.8 192;" xml:space="preserve">
<style type="text/css">
	.st0{fill:#231F20;}
</style>
<circle class="st0" cx="218.2" cy="47.6" r="31.7"/>
<circle class="st0" cx="72.4" cy="47.6" r="31.7"/>
<g>
	<path d="M218.2,85.2c-18.5,0-34.9,9.3-44.6,23.5c17.9,7.2,31.1,23.7,33.5,43.5c4.4,0.5,8.9,0.8,13.4,0.8c18.7,0,36.3-4.7,51.8-12.9
		c0-0.3,0-0.6,0-0.8C272.4,109.5,248.2,85.2,218.2,85.2z"/>
</g>
<g>
	<path d="M117,108.7c-9.8-14.2-26.1-23.5-44.7-23.5c-29.3,0-53.1,23.3-54.1,52.4c16.5,9.8,35.8,15.5,56.4,15.5
		c2.9,0,5.9-0.1,8.7-0.4C85.8,132.7,99,116,117,108.7z"/>
</g>
<g>
	<circle class="st0" cx="145.3" cy="74.9" r="31.7"/>
	<g>
		<path d="M145.3,112.5c-29.3,0-53.1,23.3-54.1,52.4c16.5,9.8,35.8,15.5,56.4,15.5c18.7,0,36.3-4.7,51.8-12.9c0-0.3,0-0.6,0-0.8
			C199.5,136.8,175.2,112.5,145.3,112.5z"/>
	</g>
</g>
</svg>
