<?xml version="1.0" encoding="utf-8"?>
<!-- Generator: Adobe Illustrator 23.0.2, SVG Export Plug-In . SVG Version: 6.00 Build 0)  -->
<svg version="1.1" id="Layer_1" xmlns="http://www.w3.org/2000/svg" xmlns:xlink="http://www.w3.org/1999/xlink" x="0px" y="0px"
	 viewBox="0 0 171.1 179" style="enable-background:new 0 0 171.1 179;" xml:space="preserve">
<path d="M159,140.8l-30.9-30.9c7.7-10.6,12.3-23.6,12.3-37.7c0-35.4-28.8-64.2-64.2-64.2C40.8,7.9,12,36.7,12,72.2
	c0,35.4,28.8,64.2,64.2,64.2c10.4,0,20.3-2.5,29-7l32.5,32.5c2.9,2.9,6.8,4.4,10.6,4.4s7.7-1.5,10.6-4.4
	C164.9,156.1,164.9,146.6,159,140.8z M42,72.2c0-18.9,15.4-34.2,34.2-34.2c18.9,0,34.2,15.4,34.2,34.2c0,18.9-15.4,34.2-34.2,34.2
	C57.4,106.4,42,91,42,72.2z"/>
</svg>
