<?xml version="1.0" encoding="utf-8"?>
<!-- Generator: Adobe Illustrator 23.0.2, SVG Export Plug-In . SVG Version: 6.00 Build 0)  -->
<svg version="1.1" id="Layer_1" xmlns="http://www.w3.org/2000/svg" xmlns:xlink="http://www.w3.org/1999/xlink" x="0px" y="0px"
	 viewBox="0 0 228 242.9" style="enable-background:new 0 0 228 242.9;" xml:space="preserve">
<style type="text/css">
	.st0{fill:none;stroke:#000000;stroke-width:6;stroke-miterlimit:10;}
</style>
<path class="st0" d="M200.2,105.4v-6.3c0-10.2-8.2-18.4-18.4-18.4h-38.4c-5.4,0-8.4-6.2-5.1-10.4l6.7-8.6
	c8.8-11.3,6.8-27.6-4.5-36.5l-9.1-7.1c-4.6-3.6-11.2-2.8-14.7,1.8l-46,59c-0.9,1.1-1.4,2.5-1.4,4l-0.3,121c0,3.6,2.9,6.5,6.5,6.5H82
	h118.2h6.5c3.6,0,6.5-2.9,6.5-6.5v-85.6c0-3.6-2.9-6.5-6.5-6.5l0,0C203.1,111.9,200.2,109,200.2,105.4z"/>
<rect x="18.2" y="95.5" class="st0" width="50.7" height="116.4"/>
</svg>
